<svg xmlns="http://www.w3.org/2000/svg" xmlns:xlink="http://www.w3.org/1999/xlink" width="1366" height="768" viewBox="0 0 1366 768">
  <defs>
    <linearGradient id="linear-gradient" x1="0.5" x2="0.5" y2="1" gradientUnits="objectBoundingBox">
      <stop offset="0" stop-color="#b563ff"/>
      <stop offset="1" stop-color="#d0f"/>
    </linearGradient>
    <linearGradient id="linear-gradient-2" x1="1" y1="-0.263" x2="0.5" y2="1" gradientUnits="objectBoundingBox">
      <stop offset="0" stop-color="#ff00de"/>
      <stop offset="1" stop-color="#7308ff"/>
    </linearGradient>
    <clipPath id="clip-Web_1366_1">
      <rect width="1366" height="768"/>
    </clipPath>
  </defs>
  <g id="Web_1366_1" data-name="Web 1366 – 1" clip-path="url(#clip-Web_1366_1)">
    <g id="Group_1" data-name="Group 1" transform="translate(122 53.343)">
      <circle id="Ellipse_2" data-name="Ellipse 2" cx="59.243" cy="59.243" r="59.243" transform="translate(203.919 460.51)" fill="#b163ff"/>
      <rect id="Rectangle_1" data-name="Rectangle 1" width="733" height="2" transform="translate(338.857 452.109)" fill="#3f3d56"/>
      <path id="Path_1" data-name="Path 1" d="M714.207,141.381H454.038v-5.362H336.067v5.362H74.825a17.6,17.6,0,0,0-17.6,17.6V515.231a17.6,17.6,0,0,0,17.6,17.6H714.207a17.6,17.6,0,0,0,17.6-17.6V158.979a17.6,17.6,0,0,0-17.6-17.6Z" transform="translate(-30.415 -122.728)" fill="#3f3d56"/>
      <rect id="Rectangle_2" data-name="Rectangle 2" width="627.391" height="353.913" transform="translate(50.406 49.754)" fill="url(#linear-gradient)"/>
      <circle id="Ellipse_3" data-name="Ellipse 3" cx="6.435" cy="6.435" r="6.435" transform="translate(368.128 27.232)" fill="#6c63ff"/>
      <path id="Path_2" data-name="Path 2" d="M498.374,403.667H50.406V49.754Z" opacity="0.1"/>
      <rect id="Rectangle_3" data-name="Rectangle 3" width="58.605" height="12.246" transform="translate(526.322 243.116)" fill="#3f3d56"/>
      <rect id="Rectangle_4" data-name="Rectangle 4" width="200.307" height="5.248" transform="translate(455.324 146.769)" fill="#3f3d56"/>
      <rect id="Rectangle_5" data-name="Rectangle 5" width="200.307" height="5.248" transform="translate(455.324 163.558)" fill="#3f3d56"/>
      <rect id="Rectangle_6" data-name="Rectangle 6" width="200.307" height="5.248" transform="translate(455.324 180.349)" fill="#3f3d56"/>
      <rect id="Rectangle_7" data-name="Rectangle 7" width="200.307" height="5.248" transform="translate(455.324 197.138)" fill="#3f3d56"/>
      <rect id="Rectangle_8" data-name="Rectangle 8" width="200.307" height="5.248" transform="translate(455.324 213.928)" fill="#3f3d56"/>
      <rect id="Rectangle_9" data-name="Rectangle 9" width="24.492" height="24.492" transform="translate(634.052 56.934)" fill="#b0f"/>
      <path id="Path_3" data-name="Path 3" d="M681.2,215.525h-29.74v-29.74H681.2Zm-28.447-1.293H679.9V187.078H652.748Z" transform="translate(-10.998 -122.728)" fill="#3f3d56"/>
      <path id="Path_4" data-name="Path 4" d="M749.422,519.96h-61.23v-4.412a.875.875,0,0,0-.875-.875H666.324a.875.875,0,0,0-.875.875v4.412H652.329v-4.412a.875.875,0,0,0-.875-.875H630.462a.875.875,0,0,0-.875.875v4.412h-13.12v-4.412a.875.875,0,0,0-.875-.875H594.6a.875.875,0,0,0-.875.875v4.411H580.6v-4.412a.875.875,0,0,0-.875-.875H558.736a.875.875,0,0,0-.875.875v4.412h-13.12v-4.412a.875.875,0,0,0-.875-.875H522.873a.875.875,0,0,0-.875.875v4.412h-13.12v-4.412a.875.875,0,0,0-.875-.875H487.01a.875.875,0,0,0-.875.875v4.412H473.015v-4.412a.875.875,0,0,0-.875-.875H307.7a.875.875,0,0,0-.875.875v4.412H293.7v-4.412a.875.875,0,0,0-.875-.875H271.833a.875.875,0,0,0-.875.875v4.412h-13.12v-4.412a.875.875,0,0,0-.875-.875H235.97a.875.875,0,0,0-.875.875v4.412H221.975v-4.412a.875.875,0,0,0-.875-.875H200.107a.875.875,0,0,0-.875.875v4.412h-13.12v-4.412a.875.875,0,0,0-.875-.875H164.244a.875.875,0,0,0-.875.875v4.412h-13.12v-4.412a.875.875,0,0,0-.875-.875H128.381a.875.875,0,0,0-.875.875v4.412h-13.12v-4.412a.875.875,0,0,0-.875-.875H92.519a.875.875,0,0,0-.875.875v4.412H51.408a20.993,20.993,0,0,0-20.993,20.993v9.493a20.993,20.993,0,0,0,20.993,20.993H749.422a20.993,20.993,0,0,0,20.993-20.993v-9.492a20.993,20.993,0,0,0-20.993-20.993Z" transform="translate(-30.415 -118.363)" fill="#3f3d56"/>
      <path id="Path_5" data-name="Path 5" d="M193.586,477.272a76,76,0,1,1,76-76,76,76,0,0,1-76,76Zm0-150a74,74,0,1,0,74,74,74,74,0,0,0-74-74Z" transform="translate(-30.415 -120.045)" fill="#3f3d56"/>
      <rect id="Rectangle_10" data-name="Rectangle 10" width="255" height="2" transform="translate(609.166 32.543)" fill="#3f3d56"/>
      <rect id="Rectangle_11" data-name="Rectangle 11" width="733" height="2" transform="translate(440.857 567.201)" fill="#3f3d56"/>
      <rect id="Rectangle_12" data-name="Rectangle 12" width="255" height="2" transform="translate(200.23 659.201)" fill="#3f3d56"/>
      <rect id="Rectangle_13" data-name="Rectangle 13" width="28" height="28" transform="translate(486 556.657)" fill="#6c63ff"/>
      <path id="Path_6" data-name="Path 6" d="M546.415,684.728h-34v-34h34Zm-32.522-1.478h31.043V652.207H513.893Z" transform="translate(-15.287 -116.071)" fill="#3f3d56"/>
      <rect id="Rectangle_14" data-name="Rectangle 14" width="28" height="28" transform="translate(821 21.657)" fill="#b563ff"/>
      <path id="Path_7" data-name="Path 7" d="M871.415,156.728h-34v-34h34Zm-32.522-1.478h31.043V124.207H838.893Z" transform="translate(-5.087 -122.728)" fill="#3f3d56"/>
      <rect id="Rectangle_15" data-name="Rectangle 15" width="28" height="28" transform="translate(1113 556.657)" fill="#6c63ff"/>
      <path id="Path_8" data-name="Path 8" d="M1153.41,684.728h-34v-34h34Zm-32.522-1.478h31.043V652.207h-31.043Z" transform="translate(4.271 -116.071)" fill="#3f3d56"/>
      <path id="Path_9" data-name="Path 9" d="M1087.59,354.687h-2.379V289.525a37.714,37.714,0,0,0-37.714-37.714H909.44a37.714,37.714,0,0,0-37.714,37.714V647.006A37.714,37.714,0,0,0,909.44,684.72h138.053a37.714,37.714,0,0,0,37.714-37.714V401.07h2.379Z" transform="translate(4.271 -116.071)" fill="#3f3d56"/>
      <path id="Path_10" data-name="Path 10" d="M1077.18,291.742V648.7a28.166,28.166,0,0,1-28.165,28.17H910.3a28.164,28.164,0,0,1-28.16-28.165V291.742a28.162,28.162,0,0,1,28.157-28.16h16.833a13.379,13.379,0,0,0,12.39,18.43h79.09a13.379,13.379,0,0,0,12.39-18.43h18.02a28.163,28.163,0,0,1,28.164,28.161Z" transform="translate(4.271 -118.841)" fill="url(#linear-gradient-2)"/>
      <rect id="Rectangle_16" data-name="Rectangle 16" width="41.324" height="12.246" transform="translate(963.266 380.118)" fill="#3f3d56"/>
      <rect id="Rectangle_17" data-name="Rectangle 17" width="141.24" height="5.248" transform="translate(913.307 283.755)" fill="#3f3d56"/>
      <rect id="Rectangle_18" data-name="Rectangle 18" width="141.24" height="5.248" transform="translate(913.307 300.544)" fill="#3f3d56"/>
      <rect id="Rectangle_19" data-name="Rectangle 19" width="141.24" height="5.248" transform="translate(913.307 317.335)" fill="#3f3d56"/>
      <rect id="Rectangle_20" data-name="Rectangle 20" width="141.24" height="5.248" transform="translate(913.307 334.124)" fill="#3f3d56"/>
      <rect id="Rectangle_21" data-name="Rectangle 21" width="141.24" height="5.248" transform="translate(913.307 350.914)" fill="#3f3d56"/>
      <rect id="Rectangle_22" data-name="Rectangle 22" width="24.492" height="24.492" transform="translate(964.37 213.411)" fill="#ef04ff"/>
      <path id="Path_11" data-name="Path 11" d="M969.474,340.032v29.74h29.74v-29.74Zm28.45,28.45h-27.16v-27.16h27.16Z" transform="translate(4.271 -120.413)" fill="#3f3d56"/>
      <path id="Path_12" data-name="Path 12" d="M1077.18,610.582V648.7a28.166,28.166,0,0,1-28.165,28.17H910.3a28.164,28.164,0,0,1-28.16-28.165V456.492l116.87,92.33,2,1.58,21.74,17.17,2.03,1.61Z" transform="translate(4.271 -117.61)" opacity="0.1"/>
      <path id="Path_13" data-name="Path 13" d="M350.586,777.272a87,87,0,1,1,87-87A87,87,0,0,1,350.586,777.272Zm0-172a85,85,0,1,0,85,85,85,85,0,0,0-85-85Z" transform="translate(-22.035 -116.071)" fill="#3f3d56"/>
      <path id="Path_14" data-name="Path 14" d="M980.586,655.272a55,55,0,1,1,55-55A55,55,0,0,1,980.586,655.272Zm0-108a53,53,0,1,0,53,53,53,53,0,0,0-53-53Z" transform="translate(4.271 -117.562)" fill="#3f3d56"/>
    </g>
  </g>
</svg>
